<?xml version="1.0" standalone="no"?>
<!DOCTYPE svg PUBLIC "-//W3C//DTD SVG 20010904//EN"
 "http://www.w3.org/TR/2001/REC-SVG-20010904/DTD/svg10.dtd">
<svg version="1.0" xmlns="http://www.w3.org/2000/svg"
 width="210.000000pt" height="451.000000pt" viewBox="0 0 210.000000 451.000000"
 preserveAspectRatio="xMidYMid meet">
<metadata>
Created by potrace 1.16, written by Peter Selinger 2001-2019
</metadata>
<g transform="translate(0.000000,451.000000) scale(0.100000,-0.100000)"
fill="#000000" stroke="none">
<path d="M1004 4485 c-3 -8 -4 -34 -3 -57 l4 -43 -55 0 -55 0 0 -55 0 -55 -55
0 -55 0 0 -55 0 -55 -55 0 -55 0 -3 -52 -3 -53 58 0 58 0 0 -333 0 -332 -112
3 -113 3 0 55 0 55 -52 -3 -53 -3 0 -55 0 -55 -55 0 -55 0 0 -50 0 -50 -55 -5
-55 -5 0 -50 0 -50 -55 -5 -55 -5 0 -50 0 -50 -55 -5 -55 -5 0 -105 0 -105
275 -5 275 -5 0 -50 0 -50 110 -5 110 -5 0 -105 0 -105 53 -3 52 -3 0 168 0
168 55 -3 55 -4 0 111 0 111 -50 0 -50 0 0 -55 0 -55 -60 0 -60 0 0 105 0 105
-49 0 -50 0 -4 -52 -3 -53 -2 53 -2 52 -49 0 -50 0 -4 -52 -3 -53 -2 58 -2 57
220 0 220 0 0 105 0 105 -49 0 -50 0 -4 -52 -3 -53 -2 58 -2 57 110 0 110 0 0
105 0 105 -50 0 -49 0 -4 -57 c-2 -32 -4 119 -5 335 l-2 392 63 -2 62 -2 -57
-3 -58 -4 0 -49 0 -50 113 -2 c61 -1 86 -3 55 -5 l-58 -4 0 -54 0 -55 -55 0
-55 0 0 -50 0 -50 113 -2 c61 -1 86 -3 55 -5 l-58 -4 0 -49 0 -49 58 -4 57 -3
-57 -2 -58 -2 0 -50 0 -49 58 -4 57 -3 -57 -2 -58 -2 0 -50 0 -49 58 -4 57 -3
-57 -2 -58 -2 0 -50 0 -49 58 -4 57 -3 -57 -2 -58 -2 0 -50 0 -50 105 0 105 0
0 330 0 330 55 0 55 0 0 56 0 56 -55 -4 -55 -3 0 58 0 59 -55 -4 -55 -3 0 58
0 59 -55 -4 -55 -3 0 58 0 57 -50 0 c-36 0 -52 -4 -56 -15z"/>
<path d="M1553 3495 c-3 -9 -3 -35 -1 -58 l5 -42 -61 4 c-34 1 -107 0 -163 -4
l-102 -7 -3 -51 -3 -52 -52 -3 -53 -3 0 -50 0 -49 215 0 215 0 0 55 0 55 63
-2 62 -2 -57 -3 -58 -4 0 -54 0 -55 -54 0 -55 0 -4 -52 -3 -53 -2 53 -2 52
-50 0 -50 0 0 -105 0 -105 -60 0 -60 0 0 55 0 55 -49 0 -48 0 -7 -101 c-4 -62
-3 -106 2 -111 6 -6 32 -8 59 -7 l48 4 0 -165 0 -165 52 -3 52 -3 3 -52 3 -52
52 -3 52 -3 3 -52 3 -52 53 -3 52 -3 0 55 0 56 -55 0 -55 0 0 55 0 55 -55 0
-55 0 0 110 0 110 110 0 110 0 0 55 0 55 275 0 275 0 0 110 0 110 -55 0 -55 0
0 55 0 55 -55 0 -55 0 0 55 0 55 -55 0 -55 0 0 55 0 55 -55 0 -55 0 0 55 0 55
-50 0 c-36 0 -52 -4 -57 -15z"/>
<path d="M562 2358 l3 -53 52 -3 52 -3 3 -52 3 -52 53 -3 52 -3 0 -52 c1 -29
1 -472 1 -985 l0 -932 55 0 54 0 0 985 0 985 -55 0 -55 0 0 55 0 55 -55 0 -55
0 0 55 0 55 -56 0 -55 0 3 -52z"/>
<path d="M892 2358 l3 -53 52 -3 52 -3 3 -52 3 -52 53 -3 52 -3 0 55 0 56 55
0 55 0 0 55 0 55 -166 0 -165 0 3 -52z"/>
<path d="M1221 1258 c0 -513 0 -956 -1 -985 l0 -52 -52 -3 -53 -3 -3 -52 -3
-52 -52 -3 -52 -3 -3 -52 -3 -53 55 0 56 0 0 55 0 55 55 0 55 0 0 55 0 55 55
0 55 0 0 985 0 985 -54 0 -55 0 0 -932z"/>
</g>
</svg>
